%TF.GenerationSoftware,KiCad,Pcbnew,8.0.3*%
%TF.CreationDate,2024-09-08T13:54:04-04:00*%
%TF.ProjectId,FightPad_MICRO,46696768-7450-4616-945f-4d4943524f2e,rev?*%
%TF.SameCoordinates,Original*%
%TF.FileFunction,Copper,L2,Bot*%
%TF.FilePolarity,Positive*%
%FSLAX46Y46*%
G04 Gerber Fmt 4.6, Leading zero omitted, Abs format (unit mm)*
G04 Created by KiCad (PCBNEW 8.0.3) date 2024-09-08 13:54:04*
%MOMM*%
%LPD*%
G01*
G04 APERTURE LIST*
%TA.AperFunction,ComponentPad*%
%ADD10C,2.032000*%
%TD*%
%TA.AperFunction,ComponentPad*%
%ADD11R,1.700000X1.700000*%
%TD*%
%TA.AperFunction,ComponentPad*%
%ADD12O,1.700000X1.700000*%
%TD*%
%TA.AperFunction,Conductor*%
%ADD13C,0.200000*%
%TD*%
G04 APERTURE END LIST*
D10*
%TO.P,SW1,2,B*%
%TO.N,Net-(J1-Pin_1)*%
X79350000Y-61510000D03*
%TO.P,SW1,1,A*%
%TO.N,Net-(J1-Pin_2)*%
X84350000Y-63610000D03*
%TD*%
D11*
%TO.P,J1,1,Pin_1*%
%TO.N,Net-(J1-Pin_1)*%
X86310000Y-48500000D03*
D12*
%TO.P,J1,2,Pin_2*%
%TO.N,Net-(J1-Pin_2)*%
X88850000Y-48500000D03*
%TD*%
D13*
%TO.N,Net-(J1-Pin_1)*%
X86310000Y-52599165D02*
X79350000Y-59559165D01*
X86310000Y-48500000D02*
X86310000Y-52599165D01*
X79350000Y-59559165D02*
X79350000Y-61510000D01*
%TO.N,Net-(J1-Pin_2)*%
X86850000Y-50500000D02*
X88850000Y-48500000D01*
X86850000Y-61110000D02*
X86850000Y-50500000D01*
X84350000Y-63610000D02*
X86850000Y-61110000D01*
%TD*%
%TA.AperFunction,NonConductor*%
G36*
X86168834Y-53692079D02*
G01*
X86224767Y-53733951D01*
X86249184Y-53799415D01*
X86249500Y-53808261D01*
X86249500Y-56607256D01*
X86229815Y-56674295D01*
X86177011Y-56720050D01*
X86107853Y-56729994D01*
X86044297Y-56700969D01*
X86018113Y-56669257D01*
X85998750Y-56635720D01*
X85987343Y-56615962D01*
X85830535Y-56411606D01*
X85830530Y-56411600D01*
X85648399Y-56229469D01*
X85648392Y-56229463D01*
X85444046Y-56072663D01*
X85444044Y-56072661D01*
X85444038Y-56072657D01*
X85444033Y-56072654D01*
X85444030Y-56072652D01*
X85220969Y-55943867D01*
X85220952Y-55943859D01*
X84982982Y-55845289D01*
X84825243Y-55803023D01*
X84734175Y-55778622D01*
X84702252Y-55774419D01*
X84478800Y-55745000D01*
X84478793Y-55745000D01*
X84312761Y-55745000D01*
X84245722Y-55725315D01*
X84199967Y-55672511D01*
X84190023Y-55603353D01*
X84219048Y-55539797D01*
X84225080Y-55533319D01*
X86037820Y-53720578D01*
X86099142Y-53687095D01*
X86168834Y-53692079D01*
G37*
%TD.AperFunction*%
%TA.AperFunction,NonConductor*%
G36*
X84983121Y-47230185D02*
G01*
X85028876Y-47282989D01*
X85038820Y-47352147D01*
X85019305Y-47399258D01*
X85020454Y-47399886D01*
X85016202Y-47407671D01*
X84965908Y-47542517D01*
X84959501Y-47602116D01*
X84959500Y-47602135D01*
X84959500Y-49397870D01*
X84959501Y-49397876D01*
X84965908Y-49457483D01*
X85016202Y-49592328D01*
X85016206Y-49592335D01*
X85102452Y-49707544D01*
X85102455Y-49707547D01*
X85217664Y-49793793D01*
X85217671Y-49793797D01*
X85262618Y-49810561D01*
X85352517Y-49844091D01*
X85412127Y-49850500D01*
X85585500Y-49850499D01*
X85652539Y-49870183D01*
X85698294Y-49922987D01*
X85709500Y-49974499D01*
X85709500Y-52299067D01*
X85689815Y-52366106D01*
X85673181Y-52386748D01*
X80162431Y-57897497D01*
X80101108Y-57930982D01*
X80031416Y-57925998D01*
X79975483Y-57884126D01*
X79951066Y-57818662D01*
X79951132Y-57800091D01*
X79951400Y-57796684D01*
X79951400Y-57623312D01*
X79935622Y-57523702D01*
X79924280Y-57452088D01*
X79870708Y-57287209D01*
X79870708Y-57287208D01*
X79792001Y-57132739D01*
X79690101Y-56992486D01*
X79567514Y-56869899D01*
X79427260Y-56767998D01*
X79272791Y-56689291D01*
X79272788Y-56689290D01*
X79107913Y-56635720D01*
X78936687Y-56608600D01*
X78936682Y-56608600D01*
X78763318Y-56608600D01*
X78763313Y-56608600D01*
X78592086Y-56635720D01*
X78427211Y-56689290D01*
X78427208Y-56689291D01*
X78272739Y-56767998D01*
X78192719Y-56826136D01*
X78132486Y-56869899D01*
X78132484Y-56869901D01*
X78132483Y-56869901D01*
X78009901Y-56992483D01*
X78009901Y-56992484D01*
X78009899Y-56992486D01*
X77966136Y-57052719D01*
X77907998Y-57132739D01*
X77829291Y-57287208D01*
X77829290Y-57287211D01*
X77775720Y-57452086D01*
X77748600Y-57623312D01*
X77748600Y-57796687D01*
X77775720Y-57967913D01*
X77829290Y-58132788D01*
X77829291Y-58132791D01*
X77870234Y-58213145D01*
X77907998Y-58287260D01*
X78009899Y-58427514D01*
X78132486Y-58550101D01*
X78272740Y-58652002D01*
X78345951Y-58689305D01*
X78427208Y-58730708D01*
X78427211Y-58730709D01*
X78488871Y-58750743D01*
X78592088Y-58784280D01*
X78671391Y-58796840D01*
X78763313Y-58811400D01*
X78763318Y-58811400D01*
X78936685Y-58811400D01*
X78940091Y-58811132D01*
X78941367Y-58811400D01*
X78941554Y-58811400D01*
X78941554Y-58811439D01*
X79008467Y-58825498D01*
X79058223Y-58874551D01*
X79073560Y-58942716D01*
X79049609Y-59008353D01*
X79037498Y-59022430D01*
X78981287Y-59078642D01*
X78981286Y-59078643D01*
X78869481Y-59190447D01*
X78869479Y-59190450D01*
X78819361Y-59277259D01*
X78819359Y-59277261D01*
X78790425Y-59327374D01*
X78790424Y-59327375D01*
X78785074Y-59347343D01*
X78749499Y-59480108D01*
X78749499Y-59480110D01*
X78749499Y-59648211D01*
X78749500Y-59648224D01*
X78749500Y-60034433D01*
X78729815Y-60101472D01*
X78677011Y-60147227D01*
X78672957Y-60148992D01*
X78659402Y-60154607D01*
X78455867Y-60279332D01*
X78274357Y-60434357D01*
X78119332Y-60615867D01*
X77994608Y-60819399D01*
X77903261Y-61039931D01*
X77847538Y-61272036D01*
X77828811Y-61510000D01*
X77847538Y-61747963D01*
X77903261Y-61980068D01*
X77994608Y-62200600D01*
X77994610Y-62200604D01*
X77994611Y-62200605D01*
X78119332Y-62404132D01*
X78274357Y-62585643D01*
X78455868Y-62740668D01*
X78659395Y-62865389D01*
X78659397Y-62865389D01*
X78659399Y-62865391D01*
X78735071Y-62896735D01*
X78879927Y-62956737D01*
X79112034Y-63012461D01*
X79350000Y-63031189D01*
X79587966Y-63012461D01*
X79820073Y-62956737D01*
X80040605Y-62865389D01*
X80244132Y-62740668D01*
X80425643Y-62585643D01*
X80580668Y-62404132D01*
X80705389Y-62200605D01*
X80796737Y-61980073D01*
X80852461Y-61747966D01*
X80871189Y-61510000D01*
X80852461Y-61272034D01*
X80796737Y-61039927D01*
X80705389Y-60819395D01*
X80580668Y-60615868D01*
X80425643Y-60434357D01*
X80244132Y-60279332D01*
X80040605Y-60154611D01*
X80040600Y-60154609D01*
X80040597Y-60154607D01*
X80027043Y-60148992D01*
X79972641Y-60105150D01*
X79950579Y-60038855D01*
X79950500Y-60034433D01*
X79950500Y-59859261D01*
X79970185Y-59792222D01*
X79986814Y-59771585D01*
X82173319Y-57585079D01*
X82234642Y-57551595D01*
X82304334Y-57556579D01*
X82360267Y-57598451D01*
X82384684Y-57663915D01*
X82385000Y-57672761D01*
X82385000Y-57838800D01*
X82418622Y-58094174D01*
X82485289Y-58342982D01*
X82583859Y-58580952D01*
X82583867Y-58580969D01*
X82712652Y-58804030D01*
X82712663Y-58804046D01*
X82869463Y-59008392D01*
X82869469Y-59008399D01*
X83051600Y-59190530D01*
X83051606Y-59190535D01*
X83255962Y-59347343D01*
X83255969Y-59347347D01*
X83479030Y-59476132D01*
X83479035Y-59476134D01*
X83479038Y-59476136D01*
X83479042Y-59476137D01*
X83479047Y-59476140D01*
X83573386Y-59515216D01*
X83717016Y-59574710D01*
X83965825Y-59641378D01*
X84221207Y-59675000D01*
X84221214Y-59675000D01*
X84478786Y-59675000D01*
X84478793Y-59675000D01*
X84734175Y-59641378D01*
X84982984Y-59574710D01*
X85220962Y-59476136D01*
X85444038Y-59347343D01*
X85648394Y-59190535D01*
X85830535Y-59008394D01*
X85987343Y-58804038D01*
X86018113Y-58750743D01*
X86068680Y-58702527D01*
X86137287Y-58689305D01*
X86202152Y-58715273D01*
X86242680Y-58772187D01*
X86249500Y-58812743D01*
X86249500Y-60809902D01*
X86229815Y-60876941D01*
X86213181Y-60897583D01*
X84968764Y-62141999D01*
X84907441Y-62175484D01*
X84837749Y-62170500D01*
X84833652Y-62168887D01*
X84820073Y-62163263D01*
X84820070Y-62163262D01*
X84820067Y-62163261D01*
X84587962Y-62107538D01*
X84587963Y-62107538D01*
X84350000Y-62088811D01*
X84112036Y-62107538D01*
X83879931Y-62163261D01*
X83659399Y-62254608D01*
X83455867Y-62379332D01*
X83274357Y-62534357D01*
X83119332Y-62715867D01*
X82994608Y-62919399D01*
X82903261Y-63139931D01*
X82847538Y-63372036D01*
X82828811Y-63610000D01*
X82847538Y-63847963D01*
X82903261Y-64080068D01*
X82994608Y-64300600D01*
X82994610Y-64300604D01*
X82994611Y-64300605D01*
X83119332Y-64504132D01*
X83274357Y-64685643D01*
X83455868Y-64840668D01*
X83659395Y-64965389D01*
X83659397Y-64965389D01*
X83659399Y-64965391D01*
X83735071Y-64996735D01*
X83879927Y-65056737D01*
X84112034Y-65112461D01*
X84350000Y-65131189D01*
X84587966Y-65112461D01*
X84820073Y-65056737D01*
X85040605Y-64965389D01*
X85244132Y-64840668D01*
X85425643Y-64685643D01*
X85580668Y-64504132D01*
X85705389Y-64300605D01*
X85796737Y-64080073D01*
X85852461Y-63847966D01*
X85871189Y-63610000D01*
X85852461Y-63372034D01*
X85796737Y-63139927D01*
X85791120Y-63126366D01*
X85783651Y-63056897D01*
X85814927Y-62994418D01*
X85817972Y-62991261D01*
X87218713Y-61590521D01*
X87218716Y-61590520D01*
X87330520Y-61478716D01*
X87380639Y-61391904D01*
X87409577Y-61341785D01*
X87450501Y-61189057D01*
X87450501Y-61030943D01*
X87450501Y-61023348D01*
X87450500Y-61023330D01*
X87450500Y-57623312D01*
X88748600Y-57623312D01*
X88748600Y-57796687D01*
X88775720Y-57967913D01*
X88829290Y-58132788D01*
X88829291Y-58132791D01*
X88870234Y-58213145D01*
X88907998Y-58287260D01*
X89009899Y-58427514D01*
X89132486Y-58550101D01*
X89272740Y-58652002D01*
X89345951Y-58689305D01*
X89427208Y-58730708D01*
X89427211Y-58730709D01*
X89488871Y-58750743D01*
X89592088Y-58784280D01*
X89671391Y-58796840D01*
X89763313Y-58811400D01*
X89763318Y-58811400D01*
X89936687Y-58811400D01*
X90019695Y-58798252D01*
X90107912Y-58784280D01*
X90272791Y-58730708D01*
X90427260Y-58652002D01*
X90567514Y-58550101D01*
X90690101Y-58427514D01*
X90792002Y-58287260D01*
X90870708Y-58132791D01*
X90924280Y-57967912D01*
X90938252Y-57879695D01*
X90951400Y-57796687D01*
X90951400Y-57623312D01*
X90935622Y-57523702D01*
X90924280Y-57452088D01*
X90870708Y-57287209D01*
X90870708Y-57287208D01*
X90792001Y-57132739D01*
X90690101Y-56992486D01*
X90567514Y-56869899D01*
X90427260Y-56767998D01*
X90272791Y-56689291D01*
X90272788Y-56689290D01*
X90107913Y-56635720D01*
X89936687Y-56608600D01*
X89936682Y-56608600D01*
X89763318Y-56608600D01*
X89763313Y-56608600D01*
X89592086Y-56635720D01*
X89427211Y-56689290D01*
X89427208Y-56689291D01*
X89272739Y-56767998D01*
X89192719Y-56826136D01*
X89132486Y-56869899D01*
X89132484Y-56869901D01*
X89132483Y-56869901D01*
X89009901Y-56992483D01*
X89009901Y-56992484D01*
X89009899Y-56992486D01*
X88966136Y-57052719D01*
X88907998Y-57132739D01*
X88829291Y-57287208D01*
X88829290Y-57287211D01*
X88775720Y-57452086D01*
X88748600Y-57623312D01*
X87450500Y-57623312D01*
X87450500Y-53436540D01*
X88824200Y-53436540D01*
X88824200Y-53583459D01*
X88852858Y-53727534D01*
X88852861Y-53727544D01*
X88909078Y-53863266D01*
X88909083Y-53863275D01*
X88990698Y-53985419D01*
X88990701Y-53985423D01*
X89094576Y-54089298D01*
X89094580Y-54089301D01*
X89216724Y-54170916D01*
X89216730Y-54170919D01*
X89216731Y-54170920D01*
X89352458Y-54227140D01*
X89496540Y-54255799D01*
X89496544Y-54255800D01*
X89496545Y-54255800D01*
X89643456Y-54255800D01*
X89643457Y-54255799D01*
X89787542Y-54227140D01*
X89923269Y-54170920D01*
X90045420Y-54089301D01*
X90149301Y-53985420D01*
X90230920Y-53863269D01*
X90287140Y-53727542D01*
X90315800Y-53583455D01*
X90315800Y-53436545D01*
X90287140Y-53292458D01*
X90230920Y-53156731D01*
X90230919Y-53156730D01*
X90230916Y-53156724D01*
X90149301Y-53034580D01*
X90149298Y-53034576D01*
X90045423Y-52930701D01*
X90045419Y-52930698D01*
X89923275Y-52849083D01*
X89923266Y-52849078D01*
X89787544Y-52792861D01*
X89787545Y-52792861D01*
X89787542Y-52792860D01*
X89787538Y-52792859D01*
X89787534Y-52792858D01*
X89643459Y-52764200D01*
X89643455Y-52764200D01*
X89496545Y-52764200D01*
X89496540Y-52764200D01*
X89352465Y-52792858D01*
X89352455Y-52792861D01*
X89216733Y-52849078D01*
X89216724Y-52849083D01*
X89094580Y-52930698D01*
X89094576Y-52930701D01*
X88990701Y-53034576D01*
X88990698Y-53034580D01*
X88909083Y-53156724D01*
X88909078Y-53156733D01*
X88852861Y-53292455D01*
X88852858Y-53292465D01*
X88824200Y-53436540D01*
X87450500Y-53436540D01*
X87450500Y-50800096D01*
X87470185Y-50733057D01*
X87486815Y-50712419D01*
X88366470Y-49832763D01*
X88427791Y-49799280D01*
X88486238Y-49800670D01*
X88614592Y-49835063D01*
X88791034Y-49850500D01*
X88849999Y-49855659D01*
X88850000Y-49855659D01*
X88850001Y-49855659D01*
X88908966Y-49850500D01*
X89085408Y-49835063D01*
X89313663Y-49773903D01*
X89527830Y-49674035D01*
X89721401Y-49538495D01*
X89888495Y-49371401D01*
X90024035Y-49177830D01*
X90123903Y-48963663D01*
X90185063Y-48735408D01*
X90205659Y-48500000D01*
X90185063Y-48264592D01*
X90123903Y-48036337D01*
X90024035Y-47822171D01*
X89888495Y-47628599D01*
X89888494Y-47628597D01*
X89721402Y-47461506D01*
X89721401Y-47461505D01*
X89685082Y-47436074D01*
X89641459Y-47381498D01*
X89634266Y-47311999D01*
X89665788Y-47249645D01*
X89726018Y-47214231D01*
X89756207Y-47210500D01*
X90278712Y-47210500D01*
X90345751Y-47230185D01*
X90391506Y-47282989D01*
X90400329Y-47310309D01*
X90450308Y-47561572D01*
X90550150Y-47890706D01*
X90681770Y-48208464D01*
X90681772Y-48208469D01*
X90843893Y-48511775D01*
X90843904Y-48511793D01*
X91034975Y-48797751D01*
X91034985Y-48797765D01*
X91253176Y-49063632D01*
X91496367Y-49306823D01*
X91496372Y-49306827D01*
X91496373Y-49306828D01*
X91762240Y-49525019D01*
X92048213Y-49716100D01*
X92048222Y-49716105D01*
X92048224Y-49716106D01*
X92351530Y-49878227D01*
X92351532Y-49878227D01*
X92351538Y-49878231D01*
X92669295Y-50009850D01*
X92998422Y-50109690D01*
X93249693Y-50159671D01*
X93311602Y-50192055D01*
X93346176Y-50252770D01*
X93349500Y-50281287D01*
X93349500Y-63138711D01*
X93329815Y-63205750D01*
X93277011Y-63251505D01*
X93249692Y-63260328D01*
X92998440Y-63310305D01*
X92998432Y-63310307D01*
X92669294Y-63410149D01*
X92351536Y-63541769D01*
X92351531Y-63541771D01*
X92048224Y-63703892D01*
X92048206Y-63703903D01*
X91762248Y-63894974D01*
X91762234Y-63894984D01*
X91496367Y-64113176D01*
X91253177Y-64356366D01*
X91034985Y-64622233D01*
X91034975Y-64622247D01*
X90843904Y-64908205D01*
X90843893Y-64908223D01*
X90681772Y-65211530D01*
X90681770Y-65211535D01*
X90550150Y-65529292D01*
X90450308Y-65858427D01*
X90400329Y-66109691D01*
X90367944Y-66171602D01*
X90307228Y-66206177D01*
X90278712Y-66209500D01*
X78421288Y-66209500D01*
X78354249Y-66189815D01*
X78308494Y-66137011D01*
X78299671Y-66109692D01*
X78283977Y-66030795D01*
X78249690Y-65858423D01*
X78149850Y-65529295D01*
X78018231Y-65211539D01*
X77856101Y-64908213D01*
X77665019Y-64622240D01*
X77446828Y-64356373D01*
X77446827Y-64356372D01*
X77446823Y-64356367D01*
X77203632Y-64113176D01*
X76937765Y-63894985D01*
X76937764Y-63894984D01*
X76937760Y-63894981D01*
X76651787Y-63703899D01*
X76651782Y-63703896D01*
X76651775Y-63703892D01*
X76348468Y-63541773D01*
X76348461Y-63541769D01*
X76348454Y-63541766D01*
X76030706Y-63410150D01*
X75905060Y-63372036D01*
X75701577Y-63310310D01*
X75701552Y-63310305D01*
X75450307Y-63260328D01*
X75388396Y-63227943D01*
X75353822Y-63167227D01*
X75350499Y-63138711D01*
X75350499Y-50281287D01*
X75370184Y-50214248D01*
X75422988Y-50168493D01*
X75450300Y-50159672D01*
X75701578Y-50109690D01*
X76030705Y-50009850D01*
X76348462Y-49878231D01*
X76651787Y-49716100D01*
X76937760Y-49525019D01*
X77203627Y-49306828D01*
X77446828Y-49063627D01*
X77665019Y-48797760D01*
X77856100Y-48511787D01*
X78018231Y-48208462D01*
X78149850Y-47890705D01*
X78249690Y-47561578D01*
X78299671Y-47310309D01*
X78332056Y-47248398D01*
X78392772Y-47213823D01*
X78421288Y-47210500D01*
X84916082Y-47210500D01*
X84983121Y-47230185D01*
G37*
%TD.AperFunction*%
M02*
